# xmcd CD database file generated by LOLA_Freedb v0.9beta0
# 
# Track frame offsets:
#      150
#      17604
#      36368
#      56540
#      72488
#      96662
#      117911
#      137470
#      148215
#      161400
#      175569
# 
# Disc length: 2505 seconds
# 
# Revision: 0 
# Processed by: cddbd v1.5.2PL0 Copyright (c) Steve Scherf et al.
# Submitted via: LOLA_Freedb v0.9beta0
# 
DISCID=9909c70b
DTITLE=Mance Lipscomb - TEXAS BLUES and 3 Other Songs (Arhoolie LP)
DYEAR=1900
DGENRE=
TTITLE0=Mance Lipscomb - Black Gal
TTITLE1=Mance Lipscomb - Texas Blues
TTITLE2=Mance Lipscomb - Oh, Baby
TTITLE3=Mance Lipscomb - Blues In The Bottle
TTITLE4=Mance Lipscomb - Angel Child
TTITLE5=Mance Lipscomb - Mance's Blues
TTITLE6=Mance Lipscomb - Whiskey Blues
TTITLE7=Mance Lipscomb - Long Way From Tipperari
TTITLE8=Mance Lipscomb - Haunted House Blues
TTITLE9=Mance Lipscomb - Mother Had A Sick Child
TTITLE10=Mance Lipscomb - I'm Looking For My Jesus
EXTD=Arhoolie LP
EXTT0=
EXTT1=
EXTT2=
EXTT3=
EXTT4=
EXTT5=
EXTT6=
EXTT7=
EXTT8=
EXTT9=
EXTT10=
PLAYORDER=
